<svg xmlns="http://www.w3.org/2000/svg" viewBox="0 0 960 720" role="img" aria-labelledby="title desc">
  <title id="title">Stylized browser and terminal preview</title>
  <desc id="desc">A graphic showing a browser panel connected to terminal output.</desc>
  <defs>
    <linearGradient id="bg" x1="0" x2="1" y1="0" y2="1">
      <stop offset="0" stop-color="#2f281f"/>
      <stop offset="0.52" stop-color="#171411"/>
      <stop offset="1" stop-color="#0d1114"/>
    </linearGradient>
    <linearGradient id="panel" x1="0" x2="1">
      <stop offset="0" stop-color="#f5d36e"/>
      <stop offset="1" stop-color="#53c7d4"/>
    </linearGradient>
    <filter id="shadow" x="-20%" y="-20%" width="140%" height="140%">
      <feDropShadow dx="16" dy="20" stdDeviation="0" flood-color="#000" flood-opacity="0.28"/>
    </filter>
  </defs>
  <rect width="960" height="720" fill="url(#bg)"/>
  <g opacity="0.22" stroke="#d9ad4f" stroke-width="1">
    <path d="M0 120H960M0 240H960M0 360H960M0 480H960M0 600H960"/>
    <path d="M120 0V720M240 0V720M360 0V720M480 0V720M600 0V720M720 0V720M840 0V720"/>
  </g>
  <g filter="url(#shadow)">
    <rect x="86" y="92" width="690" height="448" rx="0" fill="#1d1a16" stroke="#5a4935" stroke-width="2"/>
    <rect x="86" y="92" width="690" height="54" fill="#29231d"/>
    <circle cx="124" cy="119" r="8" fill="#e46655"/>
    <circle cx="152" cy="119" r="8" fill="#d9ad4f"/>
    <circle cx="180" cy="119" r="8" fill="#78d68a"/>
    <rect x="220" y="108" width="420" height="22" fill="#151310" stroke="#443829"/>
    <path d="M122 202H472" stroke="#f3eee4" stroke-width="20"/>
    <path d="M122 258H610" stroke="#d9ad4f" stroke-width="14"/>
    <path d="M122 304H560" stroke="#b8aa96" stroke-width="12"/>
    <path d="M122 348H686" stroke="#b8aa96" stroke-width="12"/>
    <rect x="122" y="408" width="174" height="62" fill="#d9ad4f"/>
    <rect x="318" y="408" width="174" height="62" fill="#53c7d4"/>
  </g>
  <g filter="url(#shadow)">
    <rect x="330" y="384" width="544" height="244" fill="#0d1114" stroke="#5a4935" stroke-width="2"/>
    <rect x="330" y="384" width="544" height="42" fill="#171411"/>
    <path d="M368 466L396 494L368 522" fill="none" stroke="#78d68a" stroke-width="12" stroke-linecap="square"/>
    <path d="M430 522H648" stroke="#f5d36e" stroke-width="12"/>
    <path d="M430 470H770" stroke="#53c7d4" stroke-width="10"/>
    <path d="M430 570H718" stroke="#b8aa96" stroke-width="10"/>
  </g>
  <path d="M804 184L858 184L858 238" fill="none" stroke="url(#panel)" stroke-width="16"/>
  <path d="M850 192L716 326" stroke="url(#panel)" stroke-width="16"/>
</svg>
